<svg xmlns="http://www.w3.org/2000/svg" viewBox="0 0 1200 800" role="img" aria-label="Future biome piers asset sheet">
  <defs>
    <linearGradient id="plank" x1="0" x2="0" y1="0" y2="1"><stop offset="0" stop-color="#d69a55"/><stop offset="1" stop-color="#85532f"/></linearGradient>
    <linearGradient id="stone" x1="0" x2="0" y1="0" y2="1"><stop offset="0" stop-color="#d7d2bd"/><stop offset="1" stop-color="#807d76"/></linearGradient>
    <filter id="s" x="-20%" y="-20%" width="140%" height="150%"><feDropShadow dx="0" dy="8" stdDeviation="5" flood-color="#17323a" flood-opacity=".28"/></filter>
  </defs>
  <rect width="1200" height="800" fill="#00ff00"/>
  <g filter="url(#s)" stroke="#5b371f" stroke-linecap="round" stroke-linejoin="round">
    <g transform="translate(70 95)"><rect x="0" y="80" width="420" height="126" rx="16" fill="url(#plank)" stroke-width="8"/><path d="M28 111h360M28 151h360M28 190h360M80 75v140M175 75v140M270 75v140M365 75v140" stroke="#f0c078" stroke-width="6"/><rect x="88" y="8" width="138" height="92" rx="12" fill="#fff0c7" stroke-width="7"/><path d="M78 16l80-54 80 54" fill="#d95d4d" stroke-width="8"/><circle cx="286" cy="102" r="24" fill="#fff1c9" stroke="#b84c33" stroke-width="10"/><path d="M315 45v55M315 45c25 8 37 18 50 36" stroke="#6b4426" stroke-width="8"/><path d="M326 76h62" stroke="#f7c56f" stroke-width="7"/></g>
    <g transform="translate(710 95)"><rect x="0" y="90" width="410" height="118" rx="16" fill="#e2c58e" stroke-width="8"/><path d="M28 120h360M28 160h360M73 80v135M170 80v135M267 80v135M355 80v135" stroke="#b7874b" stroke-width="6"/><path d="M48 79c38-55 99-62 146-6M188 78c46-48 109-47 166 0" fill="none" stroke="#23a8b6" stroke-width="9"/><path d="M44 78c25-28 45-44 80-51M190 79c38-28 74-37 121-26" fill="none" stroke="#ef6a48" stroke-width="11"/><circle cx="65" cy="213" r="18" fill="#ffcf6a"/><circle cx="335" cy="212" r="18" fill="#f3e7c4"/><path d="M317 36v57M317 36c18 16 34 19 52 8" stroke="#875628" stroke-width="8"/><circle cx="371" cy="43" r="14" fill="#f3e7c4"/></g>
    <g transform="translate(70 460)"><rect x="0" y="82" width="420" height="130" rx="14" fill="url(#plank)" stroke-width="8"/><path d="M0 120h420M0 165h420" stroke="#f0c078" stroke-width="6"/><rect x="30" y="62" width="360" height="34" fill="#5a6870" stroke-width="7"/><path d="M45 55v170M148 55v170M250 55v170M360 55v170" stroke="#424a4f" stroke-width="14"/><path d="M44 67c85 40 212 42 316 0" fill="none" stroke="#2f3941" stroke-width="8"/><path d="M323 22v79M323 22l43 54" stroke="#4d3c2b" stroke-width="8"/><circle cx="370" cy="81" r="22" fill="#f2b541" stroke="#8f4b20" stroke-width="7"/></g>
    <g transform="translate(710 460)"><rect x="0" y="92" width="410" height="115" rx="16" fill="url(#stone)" stroke="#4e4d4a" stroke-width="8"/><path d="M32 126h345M31 166h346M90 85v130M203 85v130M315 85v130" stroke="#f0e8cf" stroke-width="5" opacity=".65"/><path d="M44 72v142M150 72v142M260 72v142M366 72v142" stroke="#5b5c5d" stroke-width="13"/><path d="M40 70c86 40 222 42 325 0" fill="none" stroke="#9a6b2b" stroke-width="8"/><circle cx="70" cy="45" r="21" fill="#fff1b0" stroke="#70552c" stroke-width="7"/><circle cx="338" cy="45" r="21" fill="#fff1b0" stroke="#70552c" stroke-width="7"/><path d="M105 31c38-30 88-34 142-7" fill="none" stroke="#dbe8e9" stroke-width="16" opacity=".35"/></g>
  </g>
</svg>
